# xmcd
# 
# Track frame offsets:
#     150
#     82762
#     104898
#     184762
# 
# Disc length: 2562
# 
# Revision: 0
# Processed by: cddbd v1.5.2PL0 Copyright (c) Steve Scherf et al.
# Submitted via: fre:ac v1.0.17
# 
DISCID=2b0a0004
DTITLE=Sun Ra - The Heliocentric Worlds of Sun Ra CD 2
DYEAR=1965
DGENRE=Acid Jazz
TTITLE0=The Sun Myth
TTITLE1=A House of Beauty
TTITLE2=Cosmic Chaos
TTITLE3=Photo Archive
EXTD=
EXTT0=
EXTT1=
EXTT2=
EXTT3=
PLAYORDER=
